<svg xmlns="http://www.w3.org/2000/svg" viewBox="0 0 888 306" fill="none">
	<defs>
		<mask id="letter-cutouts" maskUnits="userSpaceOnUse" x="0" y="0" width="888" height="306">
			<rect width="888" height="306" fill="white"/>
			<path fill="black" d="m43 147 103-15 3 27-59 38 66-10 4 31-109 17-4-30 59-39-60 9z"/>
			<path fill="black" fill-rule="evenodd" d="M344 107c-42 0-72 30-72 73 0 42 30 72 72 72s72-30 72-72c0-43-30-73-72-73Zm0 31c23 0 39 17 39 42 0 24-16 41-39 41s-39-17-39-41c0-25 16-42 39-42Z" clip-rule="evenodd"/>
			<path fill="black" d="m518 119 34-5 11 49 42-6-10-49 34-5 30 135-34 6-11-54-43 7 12 54-34 6z"/>
			<path fill="black" fill-rule="evenodd" d="M762 125c-46 0-75 31-75 77s29 78 75 78 75-32 75-78-29-77-75-77Zm0 33c24 0 39 17 39 44s-15 45-39 45-39-18-39-45 15-44 39-44Z" clip-rule="evenodd"/>
		</mask>
	</defs>
	<g fill="#F7F1DE" mask="url(#letter-cutouts)">
		<path d="m15 56 186-29-12 67L0 120z"/>
		<path d="M0 120 189 94l28 180-186 31z"/>
		<path d="m189 94 12-67 27 212-11 15z"/>
		<path d="M282 0 455 75l14 58-169-70z"/>
		<path d="m282 0 18 63-75 171-25-28z"/>
		<path d="m300 63 169 70-77 173-167-142z"/>
		<path d="m457 76 192-29-21 47-160 24z"/>
		<path d="m468 118 160-24 46 141-197 71z"/>
		<path d="m628 94 21-47 25 188-20 24z"/>
		<path d="m697 65 191 0-30 33H667z"/>
		<path d="M667 98h191v207H667z"/>
		<path d="m858 98 30-33v214l-30 26z"/>
	</g>
</svg>
